# 3ds Max Wavefront OBJ Exporter v0.97b - (c)2007 guruware
# File Created: 29.11.2015 14:20:55

mtllib lectern.mtl

#
# object SchoolDesk_001
#

v  -5.5514 6.9432 13.1024
v  -5.6380 6.8115 13.1024
v  -5.6380 6.8115 13.8071
v  -5.5514 6.9432 13.8071
v  -8.6641 32.7550 13.1024
v  -8.6641 32.7550 13.8071
v  -9.1634 32.8110 13.8071
v  -9.1634 32.8110 13.1024
v  -9.1634 39.5315 -13.0866
v  -9.1634 32.8110 -13.0866
v  -9.1634 39.5315 13.1024
v  -9.1634 39.8458 13.1024
v  -9.1634 39.8458 13.8071
v  -8.7261 40.6033 13.8071
v  -8.7261 40.6033 13.1024
v  -8.8212 40.5397 13.1024
v  -8.8212 40.5397 13.8071
v  -8.6234 40.6539 13.8071
v  -8.6234 40.6539 13.1024
v  -8.5151 40.6907 13.8071
v  -8.5151 40.6907 13.1024
v  -6.4315 6.3399 13.8071
v  -6.4315 6.3399 13.1024
v  -6.5886 6.3268 13.1024
v  -6.5886 6.3268 13.8071
v  -6.2774 6.3733 13.8071
v  -6.2774 6.3733 13.1024
v  -6.1289 6.4262 13.8071
v  -6.1289 6.4262 13.1024
v  -5.9884 6.4978 13.8071
v  -5.9884 6.4978 13.1024
v  -5.8584 6.5869 13.8071
v  -5.8584 6.5869 13.1024
v  -5.7409 6.6921 13.8071
v  -5.7409 6.6921 13.1024
v  9.1634 0.0000 -13.0866
v  9.1634 40.7205 -13.0866
v  9.1634 40.7205 13.8071
v  9.1634 0.0000 13.8071
v  -6.5886 0.0000 13.8071
v  -6.5886 0.0000 -13.0866
v  -6.5886 6.3268 -13.0866
v  -9.1336 40.0722 13.1024
v  -9.1559 39.9600 13.1024
v  -9.1559 39.9600 13.8071
v  -9.1336 40.0722 13.8071
v  -8.9826 40.3783 13.1024
v  -9.0462 40.2831 13.1024
v  -9.0462 40.2831 13.8071
v  -8.9826 40.3783 13.8071
v  -8.2887 40.7205 13.8071
v  -8.2887 40.7205 13.1024
v  -8.4029 40.7130 13.1024
v  -8.4029 40.7130 13.8071
v  -9.0968 40.1805 13.1024
v  -9.0968 40.1805 13.8071
v  -5.4323 7.2345 13.1024
v  -5.4824 7.0850 13.1024
v  -5.4824 7.0850 13.8071
v  -5.4323 7.2345 13.8071
v  -8.9072 40.4643 13.1024
v  -8.9072 40.4643 13.8071
v  8.4697 40.7205 -13.0866
v  8.4697 40.7205 13.1024
v  -6.1628 31.2014 13.1024
v  -5.8912 30.7786 13.1024
v  -5.8912 30.7786 13.8071
v  -6.1628 31.2014 13.8071
v  -5.6754 30.3249 13.1024
v  -5.5186 29.8475 13.1024
v  -5.5186 29.8475 13.8071
v  -5.6754 30.3249 13.8071
v  8.4697 39.5315 13.1024
v  -6.4856 31.5864 13.1024
v  -6.4856 31.5864 13.8071
v  -6.8546 31.9275 13.8071
v  -6.8546 31.9275 13.1024
v  -5.4019 7.3892 13.8071
v  -5.3917 7.5465 13.8071
v  -5.3917 28.8526 13.8071
v  -5.4236 29.3541 13.8071
v  -7.2638 32.2191 13.8071
v  -7.7065 32.4566 13.8071
v  -8.1758 32.6362 13.8071
v  -5.4236 29.3541 13.1024
v  -5.3917 28.8526 13.1024
v  -5.4019 7.3892 13.1024
v  -8.1758 32.6362 13.1024
v  -7.7065 32.4566 13.1024
v  -7.2638 32.2191 13.1024
v  -5.3917 7.5465 13.1024
v  -5.3917 18.9220 13.1024
v  -5.3917 19.6968 13.1024
v  -5.3917 19.6968 -13.0866
v  -5.3917 18.9220 -13.0866
v  -5.5186 29.8475 -13.8071
v  -5.4236 29.3541 -13.8071
v  -5.4236 29.3541 -13.0866
v  -5.5186 29.8475 -13.0866
v  9.1634 0.0000 -13.8071
v  -6.5886 0.0000 -13.8071
v  -8.1758 32.6362 -13.8071
v  -8.1758 32.6362 -13.0866
v  -8.6640 32.7550 -13.0866
v  -8.6640 32.7550 -13.8071
v  8.4697 19.6968 13.1024
v  8.4697 32.8110 13.1024
v  8.4697 6.3268 13.1024
v  8.4697 18.9220 13.1024
v  8.4697 18.9220 -13.0866
v  8.4697 19.6968 -13.0866
v  8.4697 6.3268 -13.0866
v  8.4697 32.8110 -13.0866
v  8.4697 39.5315 -13.0866
v  -5.4019 7.3892 -13.8071
v  -5.4323 7.2345 -13.8071
v  -5.4323 7.2345 -13.0866
v  -5.4019 7.3892 -13.0866
v  -6.5886 6.3268 -13.8071
v  -6.4315 6.3399 -13.8071
v  -6.2774 6.3733 -13.8071
v  -6.1289 6.4262 -13.8071
v  -5.9884 6.4978 -13.8071
v  -5.8584 6.5869 -13.8071
v  -5.7409 6.6921 -13.8071
v  -5.6380 6.8115 -13.8071
v  -5.5513 6.9432 -13.8071
v  -5.4824 7.0850 -13.8071
v  9.1634 40.7205 -13.8071
v  -5.3917 7.5465 -13.8071
v  -5.3917 28.8526 -13.8071
v  -5.6753 30.3249 -13.8071
v  -5.8912 30.7786 -13.8071
v  -6.1627 31.2014 -13.8071
v  -6.4856 31.5864 -13.8071
v  -6.8546 31.9275 -13.8071
v  -7.2638 32.2191 -13.8071
v  -7.7065 32.4566 -13.8071
v  -9.1634 32.8110 -13.8071
v  -9.1634 39.8458 -13.8071
v  -9.1559 39.9600 -13.8071
v  -9.1336 40.0722 -13.8071
v  -9.0968 40.1805 -13.8071
v  -9.0462 40.2831 -13.8071
v  -8.9826 40.3783 -13.8071
v  -8.9072 40.4643 -13.8071
v  -8.8212 40.5397 -13.8071
v  -8.7260 40.6033 -13.8071
v  -8.6234 40.6539 -13.8071
v  -8.5151 40.6907 -13.8071
v  -8.4029 40.7130 -13.8071
v  -8.2887 40.7205 -13.8071
v  -5.6753 30.3249 -13.0866
v  -5.8912 30.7786 -13.0866
v  -5.3917 7.5465 -13.0866
v  -5.3917 28.8526 -13.0866
v  -6.4856 31.5864 -13.0866
v  -6.8546 31.9275 -13.0866
v  -7.2638 32.2191 -13.0866
v  -5.8584 6.5869 -13.0866
v  -5.9884 6.4978 -13.0866
v  -6.1289 6.4262 -13.0866
v  -6.2774 6.3733 -13.0866
v  -6.4315 6.3399 -13.0866
v  -9.0462 40.2831 -13.0866
v  -8.9826 40.3783 -13.0866
v  -9.1634 39.8458 -13.0866
v  -9.1559 39.9600 -13.0866
v  -9.1336 40.0722 -13.0866
v  -9.0968 40.1805 -13.0866
v  -5.4824 7.0850 -13.0866
v  -5.7409 6.6921 -13.0866
v  -5.6380 6.8115 -13.0866
v  -6.1627 31.2014 -13.0866
v  -8.8212 40.5397 -13.0866
v  -8.9072 40.4643 -13.0866
v  -8.7260 40.6033 -13.0866
v  -8.5151 40.6907 -13.0866
v  -8.6234 40.6539 -13.0866
v  -7.7065 32.4566 -13.0866
v  -8.4029 40.7130 -13.0866
v  -8.2887 40.7205 -13.0866
v  -5.5513 6.9432 -13.0866
# 183 vertices

vn -0.8692 0.4945 -0.0000
vn -0.7981 0.6025 -0.0000
vn -0.1743 -0.9847 -0.0000
vn -0.1115 -0.9938 -0.0000
vn -1.0000 0.0000 -0.0000
vn -0.9995 0.0327 -0.0000
vn -0.5000 0.8660 -0.0000
vn -0.6088 0.7934 -0.0000
vn -0.3827 0.9239 -0.0000
vn -0.2588 0.9659 -0.0000
vn -0.1477 0.9890 -0.0000
vn -0.0835 0.9965 -0.0000
vn -0.2741 0.9617 -0.0000
vn -0.3958 0.9183 -0.0000
vn -0.5109 0.8596 -0.0000
vn -0.6175 0.7866 -0.0000
vn -0.7138 0.7004 -0.0000
vn 1.0000 0.0000 0.0000
vn 0.0000 -1.0000 -0.0000
vn -0.9659 0.2588 -0.0000
vn -0.9914 0.1305 -0.0000
vn -0.7934 0.6088 -0.0000
vn -0.8660 0.5000 -0.0000
vn -0.0327 0.9995 -0.0000
vn -0.1305 0.9914 -0.0000
vn -0.9239 0.3827 -0.0000
vn -0.9667 0.2558 -0.0000
vn -0.9257 0.3783 -0.0000
vn -0.7071 0.7071 -0.0000
vn 0.0000 1.0000 -0.0000
vn -0.8054 -0.5927 -0.0000
vn -0.8740 -0.4860 -0.0000
vn -0.9284 -0.3715 -0.0000
vn -0.9680 -0.2510 -0.0000
vn 0.0000 0.0000 -1.0000
vn -0.7240 -0.6898 -0.0000
vn -0.6309 -0.7759 -0.0000
vn -0.0000 0.0000 1.0000
vn -0.9920 -0.1265 -0.0000
vn -0.9995 -0.0317 -0.0000
vn -0.9916 0.1290 -0.0000
vn -0.2975 -0.9547 -0.0000
vn -0.4159 -0.9094 -0.0000
vn -0.5276 -0.8495 -0.0000
# 44 vertex normals

vt 0.3737 -0.0318 0.0000
vt 0.3737 -0.0340 0.0000
vt 0.3835 -0.0340 0.0000
vt 0.3835 -0.0318 0.0000
vt 0.3737 0.2968 0.0000
vt 0.3835 0.2968 0.0000
vt 0.3835 0.3038 0.0000
vt 0.3737 0.3038 0.0000
vt 0.0100 0.5490 0.0000
vt 0.0100 0.4557 0.0000
vt 0.3737 0.4557 0.0000
vt 0.3737 0.5490 0.0000
vt 0.3835 0.4557 0.0000
vt 0.3737 0.5534 0.0000
vt 0.3835 0.5534 0.0000
vt 0.3835 0.1067 0.0000
vt 0.3737 0.1067 0.0000
vt 0.3737 0.1051 0.0000
vt 0.3835 0.1051 0.0000
vt 0.3835 0.0282 0.0000
vt 0.3737 0.0282 0.0000
vt 0.3737 0.0266 0.0000
vt 0.3835 0.0266 0.0000
vt 0.3835 -0.0508 0.0000
vt 0.3737 -0.0508 0.0000
vt 0.3737 -0.0524 0.0000
vt 0.3835 -0.0524 0.0000
vt 0.3835 -0.2085 0.0000
vt 0.3737 -0.2085 0.0000
vt 0.3737 -0.2107 0.0000
vt 0.3835 -0.2107 0.0000
vt 0.3835 -0.1909 0.0000
vt 0.3737 -0.1909 0.0000
vt 0.3737 -0.1931 0.0000
vt 0.3835 -0.1931 0.0000
vt 0.3835 -0.1701 0.0000
vt 0.3737 -0.1701 0.0000
vt 0.3737 -0.1723 0.0000
vt 0.3835 -0.1723 0.0000
vt 0.3835 -0.1465 0.0000
vt 0.3737 -0.1465 0.0000
vt 0.3737 -0.1487 0.0000
vt 0.3835 -0.1487 0.0000
vt 0.3835 -0.1204 0.0000
vt 0.3737 -0.1204 0.0000
vt 0.3737 -0.1226 0.0000
vt 0.3835 -0.1226 0.0000
vt 0.3835 -0.0922 0.0000
vt 0.3737 -0.0922 0.0000
vt 0.3737 -0.0944 0.0000
vt 0.3835 -0.0944 0.0000
vt 0.3737 -0.0625 0.0000
vt 0.3737 -0.0647 0.0000
vt 0.3835 -0.0647 0.0000
vt 0.3835 -0.0625 0.0000
vt -0.0100 0.0000 0.0000
vt -0.0100 0.5656 0.0000
vt -0.3835 0.5656 0.0000
vt -0.3835 0.0000 0.0000
vt 0.0000 0.0100 0.0000
vt 0.0000 0.3835 0.0000
vt -0.2188 0.3835 0.0000
vt -0.2188 0.0100 0.0000
vt 0.0100 0.0879 0.0000
vt 0.0100 0.0000 0.0000
vt 0.3835 0.0000 0.0000
vt 0.3737 0.0879 0.0000
vt 0.3835 0.0879 0.0000
vt 0.3737 0.4963 0.0000
vt 0.3737 0.4947 0.0000
vt 0.3835 0.4947 0.0000
vt 0.3835 0.4963 0.0000
vt 0.3737 0.3263 0.0000
vt 0.3737 0.3247 0.0000
vt 0.3835 0.3247 0.0000
vt 0.3835 0.3263 0.0000
vt 0.3835 -0.2049 0.0000
vt 0.3737 -0.2049 0.0000
vt 0.3737 -0.2065 0.0000
vt 0.3835 -0.2065 0.0000
vt 0.3737 0.3899 0.0000
vt 0.3737 0.3883 0.0000
vt 0.3835 0.3883 0.0000
vt 0.3835 0.3899 0.0000
vt 0.3835 -0.1290 0.0000
vt 0.3737 -0.1290 0.0000
vt 0.3737 -0.1306 0.0000
vt 0.3835 -0.1306 0.0000
vt 0.3737 0.0309 0.0000
vt 0.3835 0.0309 0.0000
vt 0.3737 0.4469 0.0000
vt 0.3737 0.4453 0.0000
vt 0.3835 0.4453 0.0000
vt 0.3835 0.4469 0.0000
vt 0.3737 0.2571 0.0000
vt 0.3737 0.2555 0.0000
vt 0.3835 0.2555 0.0000
vt 0.3835 0.2571 0.0000
vt 0.0096 0.0100 0.0000
vt 0.0096 0.3737 0.0000
vt 0.2424 0.3835 0.0000
vt 0.2424 0.3737 0.0000
vt 0.3737 -0.0005 0.0000
vt 0.3737 -0.0027 0.0000
vt 0.3835 -0.0027 0.0000
vt 0.3835 0.1834 0.0000
vt 0.3737 0.1834 0.0000
vt 0.3737 0.1819 0.0000
vt 0.3835 0.1819 0.0000
vt 0.3737 0.4797 0.0000
vt 0.3737 0.4727 0.0000
vt 0.3835 0.4727 0.0000
vt 0.3835 0.4797 0.0000
vt 0.3737 0.4644 0.0000
vt 0.3737 0.4575 0.0000
vt 0.3835 0.4575 0.0000
vt 0.3835 0.4644 0.0000
vt 0.2545 0.5490 0.0000
vt 0.2545 0.5534 0.0000
vt 0.0096 0.5656 0.0000
vt 0.2544 0.5550 0.0000
vt 0.2541 0.5566 0.0000
vt 0.2536 0.5581 0.0000
vt 0.2529 0.5595 0.0000
vt 0.2520 0.5608 0.0000
vt 0.2510 0.5620 0.0000
vt 0.2498 0.5631 0.0000
vt 0.2485 0.5639 0.0000
vt 0.2470 0.5646 0.0000
vt 0.2455 0.5651 0.0000
vt 0.2440 0.5655 0.0000
vt 0.2424 0.5656 0.0000
vt 0.3737 0.4758 0.0000
vt 0.3737 0.4688 0.0000
vt 0.3835 0.4688 0.0000
vt 0.3835 0.4758 0.0000
vt -0.2188 0.0000 0.0000
vt 0.0000 0.0000 0.0000
vt 0.0000 0.5656 0.0000
vt -0.2034 0.0984 0.0000
vt -0.2027 0.1005 0.0000
vt -0.2023 0.1026 0.0000
vt -0.2022 0.1048 0.0000
vt -0.2022 0.4007 0.0000
vt -0.2026 0.4077 0.0000
vt -0.2039 0.4145 0.0000
vt -0.2061 0.4212 0.0000
vt -0.2091 0.4275 0.0000
vt -0.2129 0.4334 0.0000
vt -0.2173 0.4387 0.0000
vt -0.2225 0.4434 0.0000
vt -0.2282 0.4475 0.0000
vt -0.2343 0.4508 0.0000
vt -0.2408 0.4533 0.0000
vt -0.2476 0.4549 0.0000
vt -0.2545 0.4557 0.0000
vt -0.2545 0.5534 0.0000
vt -0.2544 0.5550 0.0000
vt -0.2541 0.5566 0.0000
vt -0.2536 0.5581 0.0000
vt -0.2529 0.5595 0.0000
vt -0.2520 0.5608 0.0000
vt -0.2510 0.5620 0.0000
vt -0.2498 0.5631 0.0000
vt -0.2485 0.5639 0.0000
vt -0.2470 0.5646 0.0000
vt -0.2455 0.5651 0.0000
vt -0.2440 0.5655 0.0000
vt -0.2424 0.5656 0.0000
vt -0.2044 0.0964 0.0000
vt -0.2056 0.0946 0.0000
vt -0.2070 0.0929 0.0000
vt -0.2086 0.0915 0.0000
vt -0.2104 0.0902 0.0000
vt -0.2124 0.0893 0.0000
vt -0.2145 0.0885 0.0000
vt -0.2166 0.0881 0.0000
vt -0.2188 0.0879 0.0000
vt 0.3737 0.4197 0.0000
vt 0.3737 0.4127 0.0000
vt 0.3835 0.4127 0.0000
vt 0.3835 0.4197 0.0000
vt 0.3737 0.0617 0.0000
vt 0.3737 0.0595 0.0000
vt 0.3835 0.0595 0.0000
vt 0.3835 0.0617 0.0000
vt 0.3737 0.5372 0.0000
vt 0.3737 0.5356 0.0000
vt 0.3835 0.5356 0.0000
vt 0.3835 0.5372 0.0000
vt 0.3737 0.3411 0.0000
vt 0.3835 0.3411 0.0000
vt 0.3835 0.3481 0.0000
vt 0.3737 0.3481 0.0000
vt 0.3737 0.3799 0.0000
vt 0.3835 0.3799 0.0000
vt 0.3835 0.3869 0.0000
vt 0.3737 0.3869 0.0000
vt 0.3737 0.4385 0.0000
vt 0.3835 0.4385 0.0000
vt 0.3737 0.0915 0.0000
vt 0.3737 0.0893 0.0000
vt 0.3835 0.0893 0.0000
vt 0.3835 0.0915 0.0000
vt 0.3737 0.2628 0.0000
vt 0.3737 0.2736 0.0000
vt 0.3737 0.4007 0.0000
vt 0.3835 0.4007 0.0000
vt 0.0100 0.2736 0.0000
vt 0.0100 0.2628 0.0000
vt 0.0000 0.4456 0.0000
vt 0.0000 0.4387 0.0000
vt 0.0100 0.4387 0.0000
vt 0.0100 0.4456 0.0000
vt 0.0000 0.3411 0.0000
vt 0.0100 0.3411 0.0000
vt 0.0100 0.3481 0.0000
vt 0.0000 0.3481 0.0000
vt 0.2022 0.2736 0.0000
vt 0.2022 0.4007 0.0000
vt 0.2026 0.4077 0.0000
vt 0.2039 0.4145 0.0000
vt 0.2061 0.4212 0.0000
vt 0.2091 0.4275 0.0000
vt 0.2129 0.4334 0.0000
vt 0.2173 0.4387 0.0000
vt 0.2225 0.4434 0.0000
vt 0.2282 0.4475 0.0000
vt 0.2343 0.4508 0.0000
vt 0.2408 0.4533 0.0000
vt 0.2476 0.4549 0.0000
vt 0.2545 0.4557 0.0000
vt 0.2188 0.0879 0.0000
vt 0.2166 0.0881 0.0000
vt 0.2145 0.0885 0.0000
vt 0.2124 0.0893 0.0000
vt 0.2104 0.0902 0.0000
vt 0.2086 0.0915 0.0000
vt 0.2070 0.0929 0.0000
vt 0.2056 0.0946 0.0000
vt 0.2044 0.0964 0.0000
vt 0.2034 0.0984 0.0000
vt 0.2027 0.1005 0.0000
vt 0.2023 0.1026 0.0000
vt 0.2022 0.1048 0.0000
vt 0.2022 0.2628 0.0000
vt 0.2188 0.0000 0.0000
vt 0.2022 0.0100 0.0000
vt 0.2022 0.3737 0.0000
vt -0.0096 0.0100 0.0000
vt -0.0096 0.3737 0.0000
vt -0.2545 0.3737 0.0000
vt -0.2545 0.0100 0.0000
vt 0.2545 0.0100 0.0000
vt 0.2545 0.3737 0.0000
vt 0.3737 0.5656 0.0000
vt 0.2188 0.0100 0.0000
vt 0.2188 0.3737 0.0000
vt -0.2022 0.3737 0.0000
vt -0.2022 0.0100 0.0000
vt 0.0000 0.0617 0.0000
vt 0.0000 0.0595 0.0000
vt 0.0100 0.0595 0.0000
vt 0.0100 0.0617 0.0000
vt 0.0000 0.4758 0.0000
vt 0.0000 0.4689 0.0000
vt 0.0100 0.4689 0.0000
vt 0.0100 0.4758 0.0000
vt -0.0000 0.4007 0.0000
vt -0.0000 0.1048 0.0000
vt 0.0100 0.1048 0.0000
vt 0.0100 0.4007 0.0000
vt 0.0000 0.4574 0.0000
vt 0.0100 0.4574 0.0000
vt 0.0100 0.4644 0.0000
vt 0.0000 0.4644 0.0000
vt 0.0000 0.0915 0.0000
vt 0.0000 0.0893 0.0000
vt 0.0100 0.0893 0.0000
vt 0.0100 0.0915 0.0000
vt 0.0100 -0.1204 0.0000
vt 0.0000 -0.1204 0.0000
vt 0.0000 -0.1226 0.0000
vt 0.0100 -0.1226 0.0000
vt 0.0100 -0.1465 0.0000
vt 0.0000 -0.1465 0.0000
vt 0.0000 -0.1487 0.0000
vt 0.0100 -0.1487 0.0000
vt 0.0100 -0.1701 0.0000
vt 0.0000 -0.1701 0.0000
vt 0.0000 -0.1723 0.0000
vt 0.0100 -0.1723 0.0000
vt 0.0100 -0.2085 0.0000
vt -0.0000 -0.2085 0.0000
vt -0.0000 -0.2107 0.0000
vt 0.0100 -0.2107 0.0000
vt -0.0000 0.0879 0.0000
vt 0.0000 0.3263 0.0000
vt 0.0000 0.3247 0.0000
vt 0.0100 0.3247 0.0000
vt 0.0100 0.3263 0.0000
vt 0.0000 0.5372 0.0000
vt 0.0000 0.5356 0.0000
vt 0.0100 0.5356 0.0000
vt 0.0100 0.5372 0.0000
vt 0.0100 -0.1909 0.0000
vt 0.0000 -0.1909 0.0000
vt 0.0000 -0.1931 0.0000
vt 0.0100 -0.1931 0.0000
vt 0.0000 0.4469 0.0000
vt 0.0100 0.4469 0.0000
vt 0.0000 0.4963 0.0000
vt 0.0000 0.4947 0.0000
vt 0.0100 0.4947 0.0000
vt 0.0100 0.4963 0.0000
vt 0.0000 0.0309 0.0000
vt 0.0000 0.0287 0.0000
vt 0.0100 0.0287 0.0000
vt 0.0100 0.0309 0.0000
vt 0.0000 -0.0625 0.0000
vt 0.0000 -0.0647 0.0000
vt 0.0100 -0.0647 0.0000
vt 0.0100 -0.0625 0.0000
vt 0.0000 0.3899 0.0000
vt 0.0000 0.3883 0.0000
vt 0.0100 0.3883 0.0000
vt 0.0100 0.3899 0.0000
vt 0.0100 -0.0922 0.0000
vt 0.0000 -0.0922 0.0000
vt 0.0000 -0.0944 0.0000
vt 0.0100 -0.0944 0.0000
vt 0.0000 0.4797 0.0000
vt 0.0000 0.4727 0.0000
vt 0.0100 0.4727 0.0000
vt 0.0100 0.4797 0.0000
vt 0.0000 0.4197 0.0000
vt 0.0000 0.4127 0.0000
vt 0.0100 0.4127 0.0000
vt 0.0100 0.4197 0.0000
vt 0.0100 0.1834 0.0000
vt 0.0000 0.1834 0.0000
vt 0.0000 0.1819 0.0000
vt 0.0100 0.1819 0.0000
vt 0.0100 0.1067 0.0000
vt 0.0000 0.1067 0.0000
vt 0.0000 0.2571 0.0000
vt 0.0000 0.2555 0.0000
vt 0.0100 0.2555 0.0000
vt 0.0100 0.2571 0.0000
vt 0.0100 -0.0508 0.0000
vt 0.0000 -0.0508 0.0000
vt 0.0000 -0.0524 0.0000
vt 0.0100 -0.0524 0.0000
vt 0.0000 0.0266 0.0000
vt 0.0100 0.0266 0.0000
vt 0.0000 0.3799 0.0000
vt 0.0100 0.3799 0.0000
vt 0.0100 0.3869 0.0000
vt 0.0000 0.3869 0.0000
vt -0.0000 0.5534 0.0000
vt -0.0000 0.4557 0.0000
vt 0.0100 0.5534 0.0000
vt -0.0000 0.2968 0.0000
vt 0.0100 0.2968 0.0000
vt 0.0100 0.3038 0.0000
vt -0.0000 0.3038 0.0000
vt 0.0100 -0.1290 0.0000
vt 0.0000 -0.1290 0.0000
vt 0.0000 -0.1306 0.0000
vt 0.0100 -0.1306 0.0000
vt 0.0100 -0.2049 0.0000
vt 0.0000 -0.2049 0.0000
vt 0.0000 -0.2065 0.0000
vt 0.0100 -0.2065 0.0000
vt 0.2424 0.0000 0.0000
vt 0.2424 0.0100 0.0000
vt 0.0000 -0.0318 0.0000
vt 0.0000 -0.0340 0.0000
vt 0.0100 -0.0340 0.0000
vt 0.0100 -0.0318 0.0000
vt 0.0000 -0.0027 0.0000
vt 0.0100 -0.0027 0.0000
vt -0.2022 0.2736 0.0000
vt -0.0096 0.2736 0.0000
vt -0.0096 0.4557 0.0000
vt -0.2545 0.5490 0.0000
vt -0.0096 0.5490 0.0000
vt -0.0096 0.0879 0.0000
vt -0.0096 0.2628 0.0000
vt -0.2022 0.2628 0.0000
# 390 texture coords

g SchoolDesk_001
usemtl Wood_Cherry_Original
s off
f 1/1/1 2/2/2 3/3/2 4/4/1 
f 5/5/3 6/6/3 7/7/4 8/8/4 
f 9/9/5 10/10/5 8/11/5 11/12/5 
f 11/12/5 8/11/5 7/13/5 12/14/6 
f 12/14/6 7/13/5 13/15/6 
f 14/16/7 15/17/7 16/18/8 17/19/8 
f 18/20/9 19/21/9 15/22/7 14/23/7 
f 20/24/10 21/25/10 19/26/9 18/27/9 
f 22/28/11 23/29/11 24/30/12 25/31/12 
f 26/32/13 27/33/13 23/34/11 22/35/11 
f 28/36/14 29/37/14 27/38/13 26/39/13 
f 30/40/15 31/41/15 29/42/14 28/43/14 
f 32/44/16 33/45/16 31/46/15 30/47/15 
f 34/48/17 35/49/17 33/50/16 32/51/16 
f 2/52/2 35/53/17 34/54/17 3/55/2 
f 36/56/18 37/57/18 38/58/18 39/59/18 
f 36/60/19 39/61/19 40/62/19 41/63/19 
f 42/64/5 41/65/5 40/66/5 24/67/5 
f 24/67/5 40/66/5 25/68/5 
f 43/69/20 44/70/21 45/71/21 46/72/20 
f 47/73/22 48/74/23 49/75/23 50/76/22 
f 51/77/24 52/78/24 53/79/25 54/80/25 
f 48/81/23 55/82/26 56/83/26 49/84/23 
f 54/85/25 53/86/25 21/87/10 20/88/10 
f 57/89/27 58/21/28 59/20/28 60/90/27 
f 55/91/26 43/92/20 46/93/20 56/94/26 
f 61/95/29 47/96/22 50/97/22 62/98/29 
f 38/61/30 37/60/30 63/99/30 64/100/30 
f 51/101/24 38/61/30 64/100/30 52/102/24 
f 58/103/28 1/104/1 4/105/1 59/66/28 
f 17/106/8 16/107/8 61/108/29 62/109/29 
f 65/110/31 66/111/32 67/112/32 68/113/31 
f 69/114/33 70/115/34 71/116/34 72/117/33 
f 73/9/35 11/118/35 12/119/35 64/120/35 
f 64/120/35 12/119/35 44/121/35 43/122/35 
f 64/120/35 43/122/35 55/123/35 48/124/35 
f 64/120/35 48/124/35 47/125/35 61/126/35 
f 64/120/35 61/126/35 16/127/35 15/128/35 
f 64/120/35 15/128/35 19/129/35 21/130/35 
f 64/120/35 21/130/35 53/131/35 52/132/35 
f 74/115/36 75/116/36 76/117/37 77/114/37 
f 74/133/36 65/134/31 68/135/31 75/136/36 
f 40/137/38 39/138/38 38/139/38 59/140/38 
f 60/141/38 59/140/38 38/139/38 78/142/38 
f 79/143/38 78/142/38 38/139/38 80/144/38 
f 81/145/38 80/144/38 38/139/38 71/146/38 
f 72/147/38 71/146/38 38/139/38 67/148/38 
f 68/149/38 67/148/38 38/139/38 75/150/38 
f 76/151/38 75/150/38 38/139/38 82/152/38 
f 83/153/38 82/152/38 38/139/38 84/154/38 
f 6/155/38 84/154/38 38/139/38 7/156/38 
f 13/157/38 7/156/38 38/139/38 45/158/38 
f 46/159/38 45/158/38 38/139/38 56/160/38 
f 49/161/38 56/160/38 38/139/38 50/162/38 
f 62/163/38 50/162/38 38/139/38 17/164/38 
f 14/165/38 17/164/38 38/139/38 18/166/38 
f 20/167/38 18/166/38 38/139/38 54/168/38 
f 54/168/38 38/139/38 51/169/38 
f 40/137/38 59/140/38 4/170/38 3/171/38 
f 40/137/38 3/171/38 34/172/38 32/173/38 
f 40/137/38 32/173/38 30/174/38 28/175/38 
f 40/137/38 28/175/38 26/176/38 22/177/38 
f 40/137/38 22/177/38 25/178/38 
f 85/179/39 86/180/40 80/181/40 81/182/39 
f 87/183/41 57/184/27 60/185/27 78/186/41 
f 44/187/21 12/188/6 13/189/6 45/190/21 
f 88/191/42 84/192/42 6/193/3 5/194/3 
f 89/195/43 83/196/43 84/197/42 88/198/42 
f 90/180/44 82/181/44 83/182/43 89/179/43 
f 77/199/37 76/200/37 82/93/44 90/92/44 
f 91/201/6 87/202/41 78/203/41 79/204/6 
f 66/133/32 69/134/33 72/135/33 67/136/32 
f 92/205/5 91/18/6 79/19/6 93/206/5 
f 86/207/40 93/206/5 79/19/6 80/208/40 
f 92/205/5 93/206/5 94/209/5 95/210/5 
f 70/92/34 85/199/39 81/200/39 71/93/34 
f 96/211/34 97/212/39 98/213/39 99/214/34 
f 100/138/19 36/60/19 41/63/19 101/137/19 
f 102/215/42 103/216/42 104/217/3 105/218/3 
f 106/209/35 93/219/35 86/220/35 107/10/35 
f 107/10/35 86/220/35 85/221/35 70/222/35 
f 107/10/35 70/222/35 69/223/35 66/224/35 
f 107/10/35 66/224/35 65/225/35 74/226/35 
f 107/10/35 74/226/35 77/227/35 90/228/35 
f 107/10/35 90/228/35 89/229/35 88/230/35 
f 107/10/35 88/230/35 5/231/35 8/232/35 
f 108/64/35 24/233/35 23/234/35 27/235/35 
f 108/64/35 27/235/35 29/236/35 31/237/35 
f 108/64/35 31/237/35 33/238/35 109/210/35 
f 109/210/35 33/238/35 35/239/35 2/240/35 
f 109/210/35 2/240/35 1/241/35 58/242/35 
f 109/210/35 58/242/35 57/243/35 87/244/35 
f 109/210/35 87/244/35 91/245/35 92/246/35 
f 110/210/35 95/246/35 94/219/35 111/209/35 
f 110/210/35 111/209/35 37/139/35 112/64/35 
f 112/64/35 37/139/35 36/138/35 42/233/35 
f 42/233/35 36/138/35 41/247/35 
f 37/139/35 111/209/35 113/10/35 114/9/35 
f 9/118/35 114/9/35 113/10/35 10/232/35 
f 37/139/35 114/9/35 63/120/35 
f 106/100/30 111/99/30 94/248/30 93/249/30 
f 113/10/5 111/209/5 106/206/5 107/11/5 
f 113/250/19 107/251/19 8/252/19 10/253/19 
f 73/100/30 114/99/30 9/254/30 11/255/30 
f 63/120/5 114/9/5 73/12/5 64/256/5 
f 108/100/30 112/99/30 42/257/30 24/258/30 
f 110/210/5 112/64/5 108/67/5 109/205/5 
f 110/250/19 109/251/19 92/259/19 95/260/19 
f 115/261/41 116/262/27 117/263/27 118/264/41 
f 100/138/35 101/247/35 119/233/35 120/234/35 
f 100/138/35 120/234/35 121/235/35 122/236/35 
f 100/138/35 122/236/35 123/237/35 124/238/35 
f 100/138/35 124/238/35 125/239/35 126/240/35 
f 100/138/35 126/240/35 127/241/35 128/242/35 
f 129/139/35 100/138/35 128/242/35 116/243/35 
f 129/139/35 116/243/35 115/244/35 130/245/35 
f 129/139/35 130/245/35 131/220/35 97/221/35 
f 129/139/35 97/221/35 96/222/35 132/223/35 
f 129/139/35 132/223/35 133/224/35 134/225/35 
f 129/139/35 134/225/35 135/226/35 136/227/35 
f 129/139/35 136/227/35 137/228/35 138/229/35 
f 129/139/35 138/229/35 102/230/35 105/231/35 
f 129/139/35 105/231/35 139/232/35 140/119/35 
f 129/139/35 140/119/35 141/121/35 142/122/35 
f 129/139/35 142/122/35 143/123/35 144/124/35 
f 129/139/35 144/124/35 145/125/35 146/126/35 
f 129/139/35 146/126/35 147/127/35 148/128/35 
f 129/139/35 148/128/35 149/129/35 150/130/35 
f 129/139/35 150/130/35 151/131/35 152/132/35 
f 133/265/32 132/266/33 153/267/33 154/268/32 
f 131/269/40 130/270/6 155/271/6 156/272/40 
f 156/272/40 155/271/6 95/210/5 94/209/5 
f 135/273/36 157/274/36 158/275/37 136/276/37 
f 136/212/37 158/213/37 159/214/44 137/211/44 
f 130/277/6 115/278/41 118/279/41 155/280/6 
f 160/281/16 124/282/16 123/283/15 161/284/15 
f 161/285/15 123/286/15 122/287/14 162/288/14 
f 162/289/14 122/290/14 121/291/13 163/292/13 
f 164/293/11 120/294/11 119/295/12 42/296/12 
f 119/297/5 101/138/5 41/65/5 42/64/5 
f 145/298/22 144/299/23 165/300/23 166/301/22 
f 141/302/21 140/303/6 167/304/6 168/305/21 
f 163/306/13 121/307/13 120/308/11 164/309/11 
f 100/138/18 129/139/18 37/57/18 36/56/18 
f 143/310/26 142/211/20 169/214/20 170/311/26 
f 142/312/20 141/313/21 168/314/21 169/315/20 
f 116/316/27 128/317/28 171/318/28 117/319/27 
f 126/320/2 125/321/17 172/322/17 173/323/2 
f 144/324/23 143/325/26 170/326/26 165/327/23 
f 172/328/17 125/329/17 124/330/16 160/331/16 
f 135/265/36 134/266/31 174/267/31 157/268/36 
f 134/332/31 133/333/32 154/334/32 174/335/31 
f 97/336/39 131/337/40 156/338/40 98/339/39 
f 132/276/33 96/273/34 99/274/34 153/275/33 
f 175/340/8 147/341/8 146/342/29 176/343/29 
f 177/344/7 148/345/7 147/270/8 175/271/8 
f 146/346/29 145/347/22 166/348/22 176/349/29 
f 178/350/10 150/351/10 149/352/9 179/353/9 
f 179/318/9 149/317/9 148/354/7 177/355/7 
f 138/356/43 180/357/43 103/358/42 102/359/42 
f 140/360/6 139/361/5 10/10/5 167/362/6 
f 167/362/6 10/10/5 9/9/5 
f 137/337/44 159/338/44 180/339/43 138/336/43 
f 105/363/3 104/364/3 10/365/4 139/366/4 
f 181/367/25 151/368/25 150/369/10 178/370/10 
f 182/371/24 152/372/24 151/373/25 181/374/25 
f 37/60/30 129/138/30 152/375/24 63/99/30 
f 63/99/30 152/375/24 182/376/24 
f 127/377/1 126/378/2 173/379/2 183/380/1 
f 128/138/28 127/381/1 183/382/1 171/65/28 
f 94/383/38 111/384/38 113/385/38 156/144/38 
f 98/145/38 156/144/38 113/385/38 99/146/38 
f 153/147/38 99/146/38 113/385/38 154/148/38 
f 174/149/38 154/148/38 113/385/38 157/150/38 
f 158/151/38 157/150/38 113/385/38 159/152/38 
f 180/153/38 159/152/38 113/385/38 103/154/38 
f 104/155/38 103/154/38 113/385/38 10/156/38 
f 9/386/38 114/387/38 63/57/38 167/157/38 
f 168/158/38 167/157/38 63/57/38 169/159/38 
f 170/160/38 169/159/38 63/57/38 165/161/38 
f 166/162/38 165/161/38 63/57/38 176/163/38 
f 175/164/38 176/163/38 63/57/38 177/165/38 
f 179/166/38 177/165/38 63/57/38 178/167/38 
f 181/168/38 178/167/38 63/57/38 182/169/38 
f 164/177/38 42/178/38 112/388/38 163/176/38 
f 162/175/38 163/176/38 112/388/38 161/174/38 
f 160/173/38 161/174/38 112/388/38 110/389/38 
f 172/172/38 160/173/38 110/389/38 173/171/38 
f 183/170/38 173/171/38 110/389/38 171/140/38 
f 117/141/38 171/140/38 110/389/38 118/142/38 
f 155/143/38 118/142/38 110/389/38 95/390/38 
# 183 polygons - 8 triangles

